<?xml version="1.0" standalone="no"?>
<!DOCTYPE svg PUBLIC "-//W3C//DTD SVG 20010904//EN"
 "http://www.w3.org/TR/2001/REC-SVG-20010904/DTD/svg10.dtd">
<svg version="1.0" xmlns="http://www.w3.org/2000/svg"
 width="822.000000pt" height="822.000000pt" viewBox="0 0 822.000000 822.000000"
 preserveAspectRatio="xMidYMid meet">

<g transform="translate(0.000000,822.000000) scale(0.100000,-0.100000)"
fill="#000000" stroke="none">
<path d="M0 4110 l0 -4110 4110 0 4110 0 0 4110 0 4110 -4110 0 -4110 0 0
-4110z m4650 2250 c58 -7 111 -17 117 -22 23 -18 74 -116 97 -185 17 -52 28
-69 44 -71 43 -7 33 66 -27 187 -26 53 -28 61 -13 61 31 0 284 -50 404 -81
116 -29 412 -122 434 -137 30 -19 84 -124 100 -195 13 -57 23 -78 37 -83 34
-11 41 9 28 78 -7 35 -21 83 -32 107 -10 24 -19 45 -19 47 0 12 333 -149 455
-221 150 -87 334 -214 347 -238 6 -12 12 -60 12 -106 1 -68 4 -86 18 -95 26
-16 37 1 45 78 l8 68 85 -72 c115 -98 264 -252 372 -384 l90 -110 -4 -104 c-2
-89 0 -105 14 -113 24 -13 48 25 48 74 0 33 2 38 14 28 43 -36 219 -374 267
-513 22 -63 23 -67 6 -86 -10 -11 -15 -26 -11 -36 10 -27 48 -18 84 19 72 74
188 97 253 49 114 -84 92 -309 -44 -445 -72 -72 -157 -100 -229 -75 -55 19
-70 12 -70 -30 0 -55 -67 -248 -135 -391 -343 -717 -1101 -1267 -2100 -1523
-487 -125 -978 -171 -1495 -140 -1322 79 -2503 670 -3072 1537 -91 138 -109
175 -102 212 8 40 -10 47 -62 25 -54 -24 -149 -22 -206 4 -94 41 -176 140
-204 244 -19 73 -18 118 6 182 26 69 51 100 105 132 83 48 212 37 291 -25 32
-25 62 -27 71 -5 8 21 -28 56 -87 84 -28 13 -50 29 -50 35 0 19 69 184 121
286 46 92 51 98 85 105 20 4 67 2 104 -5 96 -15 110 -14 110 8 0 10 -6 23 -12
29 -15 12 -117 32 -165 32 l-33 0 26 43 c74 117 161 241 227 322 l73 90 93 3
c55 2 127 -4 175 -12 69 -14 82 -14 95 -2 38 39 -31 65 -199 75 l-105 6 85 89
c95 98 273 253 419 364 l96 73 55 -6 c30 -4 80 -13 111 -21 86 -21 101 -19 97
13 -3 26 -9 29 -88 49 l-85 21 90 58 c181 119 659 344 820 387 44 12 48 11
128 -29 45 -22 116 -66 157 -97 41 -31 79 -55 85 -53 5 2 11 15 13 28 2 20
-10 34 -65 76 -37 28 -94 65 -127 83 -40 23 -54 35 -45 41 63 34 523 134 753
164 l129 16 54 -37 c68 -46 142 -128 183 -200 25 -43 37 -54 53 -52 12 2 23
10 25 19 5 29 -65 133 -137 205 l-71 69 63 6 c94 10 598 2 717 -11z m694
-4620 c47 -18 73 -40 193 -166 244 -257 257 -287 257 -594 1 -189 0 -198 -28
-283 -68 -207 -223 -317 -487 -346 -93 -11 -118 -10 -228 8 -68 12 -166 33
-217 47 l-93 26 70 77 c92 100 186 234 199 281 7 27 18 41 39 50 16 6 56 40
90 75 36 38 81 73 111 87 28 13 53 31 56 40 8 25 64 33 109 14 45 -19 72 -20
78 -3 14 39 -72 83 -145 75 -42 -5 -44 -4 -63 36 -13 27 -39 54 -77 80 -48 33
-56 42 -47 57 5 10 17 53 25 96 18 86 15 169 -11 267 -9 32 -14 61 -11 63 5 5
95 31 113 32 7 1 37 -8 67 -19z m-2178 -14 c156 -31 298 -53 466 -70 76 -8
142 -17 148 -21 15 -9 50 -132 50 -176 0 -34 -3 -39 -23 -39 -49 0 -132 -33
-163 -64 -37 -37 -60 -102 -50 -141 10 -38 58 -84 96 -91 23 -5 34 -15 45 -40
15 -36 47 -54 95 -54 18 0 42 -11 62 -29 51 -44 92 -61 148 -61 61 0 99 15
180 70 33 22 79 48 102 56 24 8 52 23 63 34 11 10 47 31 79 46 48 22 79 28
156 32 l96 5 70 -50 c62 -44 73 -58 112 -133 33 -65 44 -100 48 -150 l6 -65
-76 -100 c-184 -244 -393 -406 -611 -475 -90 -28 -259 -38 -358 -20 -86 15
-183 53 -280 110 -100 59 -265 226 -347 353 -50 77 -69 97 -85 95 -11 -2 -21
-11 -23 -20 -4 -21 67 -133 144 -228 30 -37 54 -70 54 -73 0 -4 -25 -14 -56
-23 -98 -28 -285 8 -398 76 -46 28 -57 40 -62 68 -9 49 3 547 16 667 30 282
84 479 142 519 28 20 13 20 154 -8z m1686 -103 c42 -95 33 -309 -14 -345 -13
-9 -35 -26 -50 -38 -16 -12 -29 -16 -33 -10 -3 6 -48 10 -104 10 -101 0 -173
-15 -246 -52 l-40 -21 -20 29 c-11 15 -32 39 -46 54 -24 23 -27 34 -32 130 -5
92 -15 145 -41 226 -6 21 -4 22 156 29 90 4 210 13 268 20 182 22 178 23 202
-32z m-852 -297 c154 -55 243 -100 272 -138 41 -55 41 -57 13 -68 -14 -5 -52
-27 -83 -48 -112 -76 -160 -88 -226 -57 -26 12 -31 21 -31 47 l0 33 -75 0
c-60 0 -75 3 -78 16 -2 10 14 24 45 41 32 16 48 31 48 44 0 28 -48 30 -90 4
-48 -30 -101 -24 -129 13 l-21 28 25 47 c50 94 142 105 330 38z m1126 -101
c61 -35 92 -62 110 -97 22 -43 17 -56 -29 -78 -23 -11 -74 -52 -112 -90 -38
-39 -75 -70 -81 -70 -7 0 -15 15 -18 33 -13 67 -72 171 -124 218 -48 44 -50
47 -34 62 70 64 198 73 288 22z"/>
<path d="M5780 5221 c-47 -10 -60 -18 -60 -41 0 -25 16 -29 90 -18 166 23 633
-65 792 -150 52 -28 81 -24 76 10 -7 53 -213 123 -518 177 -128 22 -326 34
-380 22z"/>
<path d="M2714 5109 c-134 -12 -279 -44 -443 -98 -295 -98 -349 -127 -308
-168 13 -13 17 -13 38 0 38 24 288 114 406 146 132 36 279 59 436 67 64 3 120
10 123 15 3 5 2 18 -1 29 -6 18 -15 20 -83 19 -42 -1 -118 -5 -168 -10z"/>
<path d="M5900 4865 c-36 -9 -102 -33 -148 -55 -182 -87 -305 -223 -378 -420
-26 -69 -28 -86 -28 -225 -1 -140 1 -156 27 -230 78 -223 241 -385 462 -461
72 -25 94 -28 215 -28 157 -1 220 14 344 78 146 76 276 222 335 375 151 391
-60 824 -464 951 -91 29 -271 36 -365 15z m361 -78 c41 -14 103 -42 138 -63
60 -36 181 -146 181 -164 0 -9 -1030 -2 -1039 6 -8 7 70 83 128 126 162 122
397 159 592 95z m146 -297 l224 0 29 -62 c33 -72 60 -193 60 -268 0 -129 -58
-295 -141 -405 -116 -154 -324 -255 -524 -255 -304 0 -574 218 -641 516 -32
144 -11 314 56 444 l22 43 346 -6 c190 -4 446 -7 569 -7z"/>
<path d="M5994 4236 c-42 -18 -61 -65 -44 -106 15 -37 37 -50 83 -50 27 0 41
7 61 31 34 40 33 74 -3 110 -32 32 -51 35 -97 15z"/>
<path d="M2508 4769 c-325 -33 -595 -266 -679 -584 -28 -105 -30 -280 -5 -380
41 -160 150 -333 274 -431 71 -56 215 -128 302 -151 100 -26 292 -24 394 5
229 66 396 204 505 419 55 109 75 202 75 343 0 147 -15 211 -80 345 -46 94
-78 139 -154 216 -158 158 -399 242 -632 218z m247 -74 c162 -35 343 -159 435
-300 51 -79 48 -85 -50 -85 -36 1 -320 -7 -632 -17 -312 -9 -570 -14 -574 -11
-9 10 43 100 95 165 94 116 231 204 381 242 92 24 246 27 345 6z m513 -447
c23 -30 45 -156 46 -263 0 -233 -99 -433 -285 -574 -281 -214 -671 -196 -926
42 -116 109 -180 214 -219 363 -21 82 -22 261 -1 339 12 45 16 50 48 56 19 4
230 12 469 19 422 12 808 25 841 28 9 1 21 -4 27 -10z"/>
<path d="M2533 4078 c-79 -21 -86 -119 -12 -159 47 -24 120 22 121 78 2 62
-46 98 -109 81z"/>
<path d="M7819 4175 c-60 -40 -110 -105 -107 -140 5 -47 31 -42 65 14 20 31
48 59 77 76 36 21 46 33 44 49 -4 29 -36 30 -79 1z"/>
<path d="M4597 3988 c-9 -5 -17 -14 -17 -19 0 -6 41 -74 92 -152 112 -174 116
-199 54 -289 -21 -31 -49 -66 -62 -77 -20 -17 -23 -25 -14 -41 17 -31 34 -24
88 35 70 76 96 133 90 198 -4 45 -18 72 -99 199 -52 81 -99 149 -105 151 -5 3
-18 1 -27 -5z"/>
<path d="M346 3827 c-30 -22 -17 -52 27 -55 35 -3 37 -5 37 -37 0 -31 21 -65
39 -65 17 0 32 30 26 50 -8 25 5 26 38 0 30 -23 55 -26 63 -6 10 27 -16 55
-79 85 -78 38 -126 47 -151 28z"/>
<path d="M3913 3269 c-19 -19 -3 -43 68 -99 191 -152 439 -224 644 -187 44 8
81 14 83 12 1 -1 -14 -19 -33 -39 -39 -42 -41 -48 -21 -65 11 -9 20 -9 34 -2
28 15 92 91 98 117 4 16 27 32 80 56 56 25 74 38 74 53 0 25 -131 145 -158
145 -41 0 -34 -32 19 -82 28 -27 50 -50 48 -52 -2 -2 -22 -12 -44 -23 -66 -33
-135 -52 -226 -62 -205 -23 -402 44 -590 201 -48 41 -59 44 -76 27z"/>
</g>
</svg>
